<?xml version="1.0" encoding="utf-8"?>
<!-- Generator: Adobe Illustrator 17.0.0, SVG Export Plug-In . SVG Version: 6.00 Build 0)  -->
<!DOCTYPE svg PUBLIC "-//W3C//DTD SVG 1.1//EN" "http://www.w3.org/Graphics/SVG/1.1/DTD/svg11.dtd">
<svg version="1.1" id="Ebene_1" xmlns="http://www.w3.org/2000/svg" xmlns:xlink="http://www.w3.org/1999/xlink" x="0px" y="0px"
	 width="100px" height="100px" viewBox="0 0 100 100" enable-background="new 0 0 100 100" xml:space="preserve">
<g>
	<path d="M50,13.161c21.754,0,39.452,17.698,39.452,39.452c0,12.319-5.648,23.674-15.118,31.07
		c-2.219-4.146-4.824-9.402-7.045-14.044c3.335-3.626,6.281-8.873,6.281-15.543c0-13.437-10.133-23.57-23.57-23.57
		c-12.798,0-22.087,9.601-22.087,22.829c0,6.166,2.767,11.184,5.488,14.628c-2.597,4.555-5.934,10.362-8.644,14.955
		c-8.906-7.421-14.209-18.485-14.209-30.324C10.548,30.859,28.246,13.161,50,13.161 M50,5.161
		c-26.207,0-47.452,21.245-47.452,47.452c0,17.948,9.964,33.568,24.663,41.632c3.46-5.129,16.117-27.544,16.117-27.544
		s-7.414-5.571-7.414-13.346c0-7.775,4.843-14.829,14.087-14.829c9.245,0,15.57,6.622,15.57,15.57
		c0,8.948-8.156,13.346-8.156,13.346s9.911,21.491,14.257,27.397c15.309-7.873,25.78-23.826,25.78-42.226
		C97.452,26.406,76.207,5.161,50,5.161L50,5.161z"/>
</g>
<g>
	<path d="M50,5.161c26.207,0,47.452,21.245,47.452,47.452c0,18.399-10.472,34.353-25.78,42.226
		c-4.346-5.906-14.257-27.397-14.257-27.397s8.156-4.398,8.156-13.346c0-8.948-6.325-15.57-15.57-15.57
		c-9.245,0-14.087,7.054-14.087,14.829c0,7.775,7.414,13.346,7.414,13.346S30.671,89.116,27.21,94.245
		C12.512,86.182,2.548,70.561,2.548,52.613C2.548,26.406,23.793,5.161,50,5.161 M50,3.161c-27.268,0-49.452,22.184-49.452,49.452
		c0,18.064,9.848,34.689,25.701,43.385l1.6,0.877l1.02-1.512c3.465-5.136,15.682-26.761,16.2-27.679l0.863-1.528l-1.403-1.054
		c-0.063-0.048-6.616-5.091-6.616-11.747c0-6.386,3.738-12.829,12.087-12.829c7.99,0,13.57,5.58,13.57,13.57
		c0,7.666-7.034,11.547-7.105,11.586l-1.654,0.892l0.787,1.706c0.408,0.885,10.047,21.744,14.463,27.745l1.01,1.373l1.515-0.779
		c16.571-8.522,26.866-25.384,26.866-44.004C99.452,25.345,77.268,3.161,50,3.161L50,3.161z"/>
</g>
</svg>
